<svg width="106" height="40" viewBox="0 0 106 40" fill="none" xmlns="http://www.w3.org/2000/svg">
<path fill-rule="evenodd" clip-rule="evenodd" d="M2.375 8.3711L15.2656 30.6282L22.2985 18.4852L20.259 17.3114L17.6612 21.7968L11.2402 10.7102L24.0821 10.7102L21.4341 15.2824L23.4736 16.4562L28.1562 8.37109L2.375 8.3711Z" fill="#915BF8"/>
<path fill-rule="evenodd" clip-rule="evenodd" d="M48.3165 10.9482V25.9425H51.5938V8.37109H48.3165H46.9062V10.9482H48.3165ZM63.1072 25.9438V23.257C63.0023 23.5868 62.869 23.8884 62.7074 24.1616C61.9167 25.5596 60.5065 25.9438 58.9758 25.9438C58.0508 25.9438 57.2203 25.8016 56.5149 25.4732C55.8251 25.1449 55.3157 24.7479 54.9238 24.1382C54.5475 23.5284 54.3594 22.7936 54.3594 21.9336C54.3594 20.9956 54.5867 20.2294 55.0413 19.6353C55.5116 19.0412 56.1622 18.5956 56.9931 18.2985C57.8397 18.0015 58.8273 17.8529 59.9561 17.8529H62.5663V17.7357C62.5663 17.0008 62.386 16.6879 62.0255 16.3283C61.6649 15.9687 61.1084 15.7889 60.3559 15.7889C59.9639 15.7889 59.4936 15.7967 58.9449 15.8123C58.3962 15.828 57.8397 15.8514 57.2753 15.8827C56.7266 15.8983 56.2328 15.9218 55.7938 15.9531V13.1857C56.1544 13.1544 56.562 13.1231 57.0166 13.0919C57.7827 13.0392 58.5493 13.0416 59.3163 13.044C59.4762 13.0445 59.6361 13.045 59.7961 13.045C61.113 13.045 62.1744 13.1935 63.0366 13.5375C63.9146 13.8814 64.573 14.4208 65.012 15.1557C65.4666 15.8905 65.6939 16.8521 65.6939 18.0403V25.9438H63.1072ZM62.5663 19.7995V20.9956C62.535 21.6835 62.386 22.2307 62.1195 22.6372C61.8687 23.0281 61.5473 23.3095 61.1554 23.4815C60.7791 23.6379 60.3637 23.716 59.9091 23.716C59.1566 23.716 58.5765 23.5362 58.1689 23.1766C57.777 22.817 57.581 22.348 57.581 21.7695C57.581 21.191 57.777 20.7219 58.1689 20.3623C58.5765 19.9871 59.1566 19.7995 59.9091 19.7995H62.5663ZM84.7346 13.5914C85.4894 13.2356 86.3608 13.0586 87.3474 13.0586C88.6427 13.0586 89.7292 13.3462 90.6036 13.9251C91.4898 14.4876 92.1552 15.2357 92.5986 16.1686C93.0412 17.0852 93.2624 18.0756 93.2624 19.1388V20.2958H84.3155C84.3693 20.7267 84.4693 21.1249 84.6153 21.4908C84.8452 22.0521 85.1965 22.497 85.6691 22.8273C86.1397 23.1414 86.7417 23.3007 87.479 23.3007C88.2173 23.3007 88.8124 23.1556 89.2683 22.8703C89.7272 22.5684 90.0166 22.2052 90.1434 21.7816L90.1558 21.7402H93.0787L93.0636 21.8104C92.8864 22.6393 92.5463 23.3657 92.043 23.9886C91.5395 24.6117 90.8957 25.0935 90.1127 25.4339C89.3437 25.7747 88.4654 25.9443 87.479 25.9443C86.4487 25.9443 85.5408 25.7673 84.7569 25.4116L84.7565 25.4115C83.9892 25.0566 83.3463 24.583 82.8287 23.9903L82.8277 23.9892C82.3262 23.3832 81.9426 22.7107 81.6771 21.9717L81.6768 21.9707C81.4261 21.2322 81.3008 20.4786 81.3008 19.7102V19.2927C81.3008 18.4952 81.4261 17.727 81.6768 16.9882L81.677 16.9876C81.9425 16.2337 82.3264 15.5679 82.8286 14.9907C83.3461 14.3981 83.9818 13.9317 84.7346 13.5914ZM87.3474 15.7022C86.6837 15.7022 86.125 15.8539 85.6683 16.1542C85.2112 16.4547 84.8599 16.8919 84.6151 17.4688C84.5102 17.7251 84.4289 18.0059 84.3716 18.3115H90.2243C90.1704 17.9617 90.0854 17.6441 89.9697 17.3583C89.7545 16.8263 89.4254 16.4185 88.983 16.1325L88.9822 16.132C88.5554 15.8469 88.0117 15.7022 87.3474 15.7022ZM95.8789 13.0586V25.9443H99.1756V19.2701C99.1756 18.1628 99.476 17.3207 100.077 16.7436C100.694 16.151 101.555 15.8547 102.662 15.8547H103.625V13.0586H103.089C101.555 13.0586 100.393 13.4919 99.6025 14.4276C99.0056 15.1342 98.634 16.0941 98.4878 17.3074V13.0586H95.8789ZM68.4667 27.8186V30.63H70.5781C71.6347 30.63 72.5118 30.4812 73.2214 30.2295C73.9469 29.9778 74.5383 29.561 74.9956 28.9791C75.4529 28.4129 75.8078 27.6501 76.0601 26.6906L79.9531 13.0586H76.7891L74.1306 23.1485H73.6332L70.4609 13.0586H67.1797L71.3984 25.9443H73.3906C73.2815 26.3985 73.1011 26.6696 72.7956 27.0445C72.3531 27.6216 71.5765 27.8186 70.8796 27.8186H68.4667ZM32.8438 13.0586L36.9033 25.9443H42.2188L45.7344 13.0586H42.5703L39.8847 23.2296H39.3219L36.181 13.0586H32.8438Z" fill="black"/>
</svg>
